<svg width="23" height="25" viewBox="0 0 23 25" fill="none" xmlns="http://www.w3.org/2000/svg">
<rect x="0.676471" y="0.676471" width="21.6471" height="23.0127" rx="4.32353" fill="#F8F9FA" stroke="#6C757D" stroke-width="1.35294"/>
<path d="M7.08989 18L10.523 11.9469L7.28865 6.21907H10.27L11.4084 8.44155C11.5409 8.71861 11.6794 9.01373 11.8239 9.32693C11.9685 9.62807 12.1311 9.96536 12.3118 10.3388H12.3841C12.5286 9.96536 12.6611 9.62807 12.7816 9.32693C12.9141 9.01373 13.0466 8.71861 13.1791 8.44155L14.2271 6.21907H17.082L13.8477 12.0734L17.2808 18H14.3175L13.0346 15.5968C12.8659 15.2836 12.7093 14.9765 12.5648 14.6753C12.4202 14.3621 12.2636 14.0248 12.095 13.6635H12.0227C11.8781 14.0248 11.7336 14.3621 11.589 14.6753C11.4445 14.9765 11.2999 15.2836 11.1554 15.5968L9.92671 18H7.08989Z" fill="#6C757D"/>
</svg>
