<svg width="276" height="192" viewBox="0 0 276 192" fill="none" xmlns="http://www.w3.org/2000/svg">
<path d="M61.5505 48.3656C105.734 2.08131 196.787 -0.663972 244.46 1.44645C262.022 2.22394 275.088 16.9879 275.088 34.5679V155.515C275.088 174.845 259.418 190.515 240.088 190.515H35.1045C15.7746 190.515 0.530218 174.777 4.7025 155.903C11.0158 127.343 25.9977 85.6085 61.5505 48.3656Z" fill="url(#paint0_linear)"/>
<path d="M154.235 109.013C189.011 71.6637 275.088 75.0647 275.088 83.2557C275.088 88.2123 275.088 126.806 275.088 156.511C275.088 175.841 259.418 191.494 240.088 191.494H154.459C135.129 191.494 119.86 175.579 125.925 157.225C130.788 142.51 139.307 125.044 154.235 109.013Z" fill="#F9CECE" fill-opacity="0.3"/>
<defs>
<linearGradient id="paint0_linear" x1="388.853" y1="136.391" x2="-113.731" y2="55.5141" gradientUnits="userSpaceOnUse">
<stop offset="0.291667" stop-color="#F08A8A"/>
<stop offset="1" stop-color="#EEEEEE"/>
</linearGradient>
</defs>
</svg>
