<svg width="272" height="190" viewBox="0 0 272 190" fill="none" xmlns="http://www.w3.org/2000/svg">
<path d="M58.446 47.4139C102.63 1.12965 193.683 -1.61563 241.355 0.494789C258.918 1.27228 271.984 16.0362 271.984 33.6162V154.563C271.984 173.893 256.314 189.563 236.984 189.563H32C12.6701 189.563 -2.57427 173.825 1.598 154.951C7.91133 126.391 22.8932 84.6569 58.446 47.4139Z" fill="url(#paint0_linear)"/>
<path opacity="0.7" d="M151.131 107.061C185.907 69.7121 271.985 73.113 271.985 81.304C271.985 86.2607 271.985 124.854 271.985 154.559C271.985 173.889 256.315 189.543 236.985 189.543H151.356C132.026 189.543 116.756 173.628 122.821 155.274C127.684 140.559 136.204 123.093 151.131 107.061Z" fill="#F0EDFC"/>
<defs>
<linearGradient id="paint0_linear" x1="385.749" y1="135.439" x2="-116.835" y2="54.5624" gradientUnits="userSpaceOnUse">
<stop offset="0.301236" stop-color="#4967BA"/>
<stop offset="1" stop-color="#E5E5E5"/>
</linearGradient>
</defs>
</svg>