<svg width="55" height="55" viewBox="0 0 31 31" fill="none" xmlns="http://www.w3.org/2000/svg">
    <g clip-path="url(#clip0)">
    <path class="path" d="M20.8246 16.6632C19.4747 14.5573 17.1756 13.2998 14.6743 13.2998C12.1731 13.2998 9.87401 14.5573 8.5243 16.6632L5.27143 21.7378C4.73173 22.5796 4.4827 23.5523 4.55114 24.55C4.61957 25.548 4.99929 26.4772 5.64908 27.238C6.29934 27.9981 7.15856 28.5177 8.13382 28.7406C9.10909 28.9636 10.1088 28.8683 11.0248 28.4657L11.0862 28.4385C13.391 27.4456 16.0248 27.4548 18.3236 28.4657C18.9167 28.7264 19.545 28.8583 20.179 28.8583C20.5237 28.8583 20.8704 28.8191 21.214 28.7409C22.1892 28.5182 23.0484 27.9986 23.6989 27.2382C24.349 26.4781 24.7289 25.5486 24.7976 24.5505C24.8662 23.5523 24.6172 22.5798 24.0775 21.7375L20.8246 16.6632Z" fill="rgba(250, 226, 220, 0.6)"/>
    <path class="path" d="M6.14765 16.6568C7.11537 16.2851 7.85053 15.5053 8.21766 14.461C8.56716 13.4671 8.53855 12.3452 8.13686 11.3015C7.73495 10.2585 7.0039 9.40701 6.0783 8.9037C5.10601 8.37521 4.03782 8.28915 3.07171 8.66154C1.12805 9.40884 0.236093 11.8107 1.08364 14.0169C1.76068 15.7729 3.33973 16.8814 4.93618 16.8814C5.34382 16.8814 5.7526 16.8091 6.14765 16.6568Z" fill="rgba(250, 226, 220, 0.6)"/>
    <path class="path" d="M12.4594 12.6809C14.8892 12.6809 16.8661 10.4287 16.8661 7.66034C16.8661 4.89133 14.8892 2.63867 12.4594 2.63867C10.0298 2.63867 8.05322 4.89133 8.05322 7.66034C8.05322 10.4287 10.0298 12.6809 12.4594 12.6809Z" fill="rgba(250, 226, 220, 0.6)"/>
    <path class="path" d="M20.0694 13.9142H20.0697C20.4434 14.0382 20.8247 14.0975 21.2045 14.0975C22.9765 14.0975 24.7034 12.8078 25.3623 10.8256C25.7418 9.68467 25.7169 8.47823 25.2921 7.42881C24.8476 6.33018 24.0238 5.53275 22.9723 5.18325C21.9206 4.83375 20.7833 4.97955 19.7696 5.59341C18.8012 6.1798 18.0592 7.13126 17.6801 8.27224C16.8802 10.6792 17.952 13.2101 20.0694 13.9142V13.9142Z" fill="rgba(250, 226, 220, 0.6)"/>
    <path class="path" d="M29.3495 13.3281L29.3488 13.3275C27.6732 12.0897 25.1671 12.6262 23.762 14.5241C22.3583 16.4229 22.5778 18.9756 24.2509 20.2143C24.8611 20.6663 25.5821 20.8824 26.32 20.8824C27.6061 20.8824 28.9441 20.226 29.8386 19.0188C31.2421 17.12 31.0229 14.5673 29.3495 13.3281V13.3281Z" fill="rgba(250, 226, 220, 0.6)"/>
    </g>
    <defs>
    <clipPath id="clip0">
    <rect width="55" height="55" fill="white" transform="translate(0.763184 0.763672)"/>
    </clipPath>
    </defs>
</svg>
