<svg width="55" height="57" viewBox="0 0 85 77" fill="none" xmlns="http://www.w3.org/2000/svg">
<g filter="url(#filter0_di)">
<path d="M74.5994 40.6074L80.9189 12.5762C81.3751 10.5523 79.8492 8.625 77.7903 8.625H25.283L24.0577 2.58615C23.7524 1.08096 22.4386 0 20.9145 0H7.20833C5.4364 0 4 1.44806 4 3.23438V5.39062C4 7.17694 5.4364 8.625 7.20833 8.625H16.5503L25.9411 54.9082C23.6945 56.2107 22.1806 58.653 22.1806 61.4531C22.1806 65.6212 25.5322 69 29.6667 69C33.8011 69 37.1528 65.6212 37.1528 61.4531C37.1528 59.3408 36.2909 57.4324 34.9037 56.0625H62.9295C61.5424 57.4324 60.6806 59.3408 60.6806 61.4531C60.6806 65.6212 64.0322 69 68.1667 69C72.3012 69 75.6528 65.6212 75.6528 61.4531C75.6528 58.4651 73.9299 55.883 71.4313 54.6603L72.1688 51.3887C72.6251 49.3648 71.0991 47.4375 69.0403 47.4375H33.158L32.2831 43.125H71.4709C72.9689 43.125 74.2675 42.08 74.5994 40.6074Z" fill="#FCF0ED"/>
</g>
<defs>
<filter id="filter0_di" x="0" y="0" width="85" height="77" filterUnits="userSpaceOnUse" color-interpolation-filters="sRGB">
<feFlood flood-opacity="0" result="BackgroundImageFix"/>
<feColorMatrix in="SourceAlpha" type="matrix" values="0 0 0 0 0 0 0 0 0 0 0 0 0 0 0 0 0 0 127 0"/>
<feOffset dy="4"/>
<feGaussianBlur stdDeviation="2"/>
<feColorMatrix type="matrix" values="0 0 0 0 0 0 0 0 0 0 0 0 0 0 0 0 0 0 0.25 0"/>
<feBlend mode="normal" in2="BackgroundImageFix" result="effect1_dropShadow"/>
<feBlend mode="normal" in="SourceGraphic" in2="effect1_dropShadow" result="shape"/>
<feColorMatrix in="SourceAlpha" type="matrix" values="0 0 0 0 0 0 0 0 0 0 0 0 0 0 0 0 0 0 127 0" result="hardAlpha"/>
<feOffset dy="4"/>
<feGaussianBlur stdDeviation="2"/>
<feComposite in2="hardAlpha" operator="arithmetic" k2="-1" k3="1"/>
<feColorMatrix type="matrix" values="0 0 0 0 0 0 0 0 0 0 0 0 0 0 0 0 0 0 0.25 0"/>
<feBlend mode="normal" in2="shape" result="effect2_innerShadow"/>
</filter>
</defs>
</svg>
