<svg width="684" height="580" viewBox="0 0 684 580" fill="none" xmlns="http://www.w3.org/2000/svg">
<g filter="url(#filter0_f)">
<path d="M515.739 35.0781C418.515 -8.88954 300.324 127.651 149.984 139.455C-0.356307 151.259 -5.97753 613.311 165.701 553.617C337.38 493.923 596.906 542.399 640.549 402.818C684.193 263.238 612.963 79.0458 515.739 35.0781Z" fill="#F18A8A"/>
</g>
<g filter="url(#filter1_d)">
<path d="M522.935 24.7988C425.711 -19.1688 307.52 117.372 157.18 129.176C6.83951 140.979 1.21828 603.032 172.897 543.338C344.576 483.644 604.102 532.119 647.745 392.539C691.389 252.958 620.159 68.7665 522.935 24.7988Z" fill="#F9CECE"/>
</g>
<defs>
<filter id="filter0_f" x="0" y="0.279297" width="683.757" height="579.721" filterUnits="userSpaceOnUse" color-interpolation-filters="sRGB">
<feFlood flood-opacity="0" result="BackgroundImageFix"/>
<feBlend mode="normal" in="SourceGraphic" in2="BackgroundImageFix" result="shape"/>
<feGaussianBlur stdDeviation="7.5" result="effect1_foregroundBlur"/>
</filter>
<filter id="filter1_d" x="18.1958" y="5" width="661.757" height="557.721" filterUnits="userSpaceOnUse" color-interpolation-filters="sRGB">
<feFlood flood-opacity="0" result="BackgroundImageFix"/>
<feColorMatrix in="SourceAlpha" type="matrix" values="0 0 0 0 0 0 0 0 0 0 0 0 0 0 0 0 0 0 127 0"/>
<feOffset dy="4"/>
<feGaussianBlur stdDeviation="2"/>
<feColorMatrix type="matrix" values="0 0 0 0 0 0 0 0 0 0 0 0 0 0 0 0 0 0 0.25 0"/>
<feBlend mode="normal" in2="BackgroundImageFix" result="effect1_dropShadow"/>
<feBlend mode="normal" in="SourceGraphic" in2="effect1_dropShadow" result="shape"/>
</filter>
</defs>
</svg>
